<svg xmlns="http://www.w3.org/2000/svg" viewBox="0 0 900 470" width="900" height="470" role="img" aria-labelledby="t d" font-family="system-ui, -apple-system, 'Segoe UI', Arial, sans-serif">
<title id="t">For customers who chose digital receipts, the slip goes to the phone, not the bin</title>
<desc id="d">Two panels. Left, today: a card terminal prints a paper customer slip that ends up in a bin full of slips. Right, digital receipt by default: the terminal prints nothing and the phone shows an amount notification and a digital receipt from the bank.</desc>
<rect x="1" y="1" width="898" height="468" rx="16" fill="#f8faf9" stroke="#d9e2de" stroke-width="1.5"/>
<defs><marker id="ah" viewBox="0 0 10 10" refX="8" refY="5" markerWidth="7" markerHeight="7" orient="auto-start-reverse"><path d="M0,0 L10,5 L0,10 Z" fill="#3f7f73"/></marker>
<marker id="ar" viewBox="0 0 10 10" refX="8" refY="5" markerWidth="7" markerHeight="7" orient="auto-start-reverse"><path d="M0,0 L10,5 L0,10 Z" fill="#b8654a"/></marker></defs>
<rect x="30" y="30" width="410" height="370" rx="12" fill="#ffffff" stroke="#d9e2de" stroke-width="1.5"/>
<rect x="460" y="30" width="410" height="370" rx="12" fill="#ffffff" stroke="#d9e2de" stroke-width="1.5"/>
<text x="235" y="62" font-size="18" fill="#2f3b36" text-anchor="middle" font-weight="700">Today</text>
<text x="665" y="62" font-size="18" fill="#2f3b36" text-anchor="middle" font-weight="700">Digital receipt by default</text>
<rect x="80" y="170" width="110" height="170" rx="14" fill="#6f9a90" stroke="#2f3b36" stroke-width="2.5"/>
<rect x="95" y="186" width="80" height="42" rx="5" fill="#dfeae7" stroke="#2f3b36" stroke-width="1.5"/>
<text x="135" y="213" font-size="14" fill="#2f3b36" text-anchor="middle" font-weight="600">Paid</text>
<rect x="98" y="244" width="20" height="14" rx="3" fill="#dfeae7" stroke="#2f3b36" stroke-width="1"/>
<rect x="124" y="244" width="20" height="14" rx="3" fill="#dfeae7" stroke="#2f3b36" stroke-width="1"/>
<rect x="150" y="244" width="20" height="14" rx="3" fill="#dfeae7" stroke="#2f3b36" stroke-width="1"/>
<rect x="98" y="266" width="20" height="14" rx="3" fill="#dfeae7" stroke="#2f3b36" stroke-width="1"/>
<rect x="124" y="266" width="20" height="14" rx="3" fill="#dfeae7" stroke="#2f3b36" stroke-width="1"/>
<rect x="150" y="266" width="20" height="14" rx="3" fill="#dfeae7" stroke="#2f3b36" stroke-width="1"/>
<rect x="98" y="288" width="20" height="14" rx="3" fill="#dfeae7" stroke="#2f3b36" stroke-width="1"/>
<rect x="124" y="288" width="20" height="14" rx="3" fill="#dfeae7" stroke="#2f3b36" stroke-width="1"/>
<rect x="150" y="288" width="20" height="14" rx="3" fill="#dfeae7" stroke="#2f3b36" stroke-width="1"/>
<rect x="98" y="310" width="20" height="14" rx="3" fill="#dfeae7" stroke="#2f3b36" stroke-width="1"/>
<rect x="124" y="310" width="20" height="14" rx="3" fill="#dfeae7" stroke="#2f3b36" stroke-width="1"/>
<rect x="150" y="310" width="20" height="14" rx="3" fill="#dfeae7" stroke="#2f3b36" stroke-width="1"/>
<path d="M110,172 L110,96 L170,96 L170,172" fill="#ffffff" stroke="#8c9994" stroke-width="1.5"/>
<line x1="120" y1="112" x2="160" y2="112" stroke="#c9d3cf" stroke-width="3"/>
<line x1="120" y1="124" x2="150" y2="124" stroke="#c9d3cf" stroke-width="3"/>
<line x1="120" y1="136" x2="160" y2="136" stroke="#c9d3cf" stroke-width="3"/>
<line x1="120" y1="148" x2="145" y2="148" stroke="#c9d3cf" stroke-width="3"/>
<path d="M176,110 C250,100 320,150 330,238" fill="none" stroke="#b8654a" stroke-width="3" stroke-dasharray="7 5" marker-end="url(#ar)"/>
<path d="M285,250 L385,250 L373,345 L297,345 Z" fill="#c9d3cf" stroke="#2f3b36" stroke-width="2.5" stroke-linejoin="round"/>
<rect x="278" y="240" width="114" height="12" rx="4" fill="#8c9994" stroke="#2f3b36" stroke-width="2"/>
<path d="M300,240 L308,214 L326,222 L318,240 Z" fill="#ffffff" stroke="#8c9994" stroke-width="1.5"/>
<path d="M330,240 L338,206 L356,212 L350,240 Z" fill="#ffffff" stroke="#8c9994" stroke-width="1.5"/>
<path d="M356,240 L372,220 L384,232 L374,240 Z" fill="#ffffff" stroke="#8c9994" stroke-width="1.5"/>
<line x1="315" y1="265" x2="320" y2="330" stroke="#8c9994" stroke-width="2"/>
<line x1="335" y1="265" x2="335" y2="330" stroke="#8c9994" stroke-width="2"/>
<line x1="355" y1="265" x2="350" y2="330" stroke="#8c9994" stroke-width="2"/>
<text x="190" y="92" font-size="15" fill="#2f3b36" text-anchor="start" font-weight="600">Paper slip printed</text>
<text x="335" y="375" font-size="15" fill="#b8654a" text-anchor="middle" font-weight="600">Most end up in the bin</text>
<rect x="510" y="170" width="110" height="170" rx="14" fill="#6f9a90" stroke="#2f3b36" stroke-width="2.5"/>
<rect x="525" y="186" width="80" height="42" rx="5" fill="#dfeae7" stroke="#2f3b36" stroke-width="1.5"/>
<text x="565" y="213" font-size="14" fill="#2f3b36" text-anchor="middle" font-weight="600">Paid</text>
<rect x="528" y="244" width="20" height="14" rx="3" fill="#dfeae7" stroke="#2f3b36" stroke-width="1"/>
<rect x="554" y="244" width="20" height="14" rx="3" fill="#dfeae7" stroke="#2f3b36" stroke-width="1"/>
<rect x="580" y="244" width="20" height="14" rx="3" fill="#dfeae7" stroke="#2f3b36" stroke-width="1"/>
<rect x="528" y="266" width="20" height="14" rx="3" fill="#dfeae7" stroke="#2f3b36" stroke-width="1"/>
<rect x="554" y="266" width="20" height="14" rx="3" fill="#dfeae7" stroke="#2f3b36" stroke-width="1"/>
<rect x="580" y="266" width="20" height="14" rx="3" fill="#dfeae7" stroke="#2f3b36" stroke-width="1"/>
<rect x="528" y="288" width="20" height="14" rx="3" fill="#dfeae7" stroke="#2f3b36" stroke-width="1"/>
<rect x="554" y="288" width="20" height="14" rx="3" fill="#dfeae7" stroke="#2f3b36" stroke-width="1"/>
<rect x="580" y="288" width="20" height="14" rx="3" fill="#dfeae7" stroke="#2f3b36" stroke-width="1"/>
<rect x="528" y="310" width="20" height="14" rx="3" fill="#dfeae7" stroke="#2f3b36" stroke-width="1"/>
<rect x="554" y="310" width="20" height="14" rx="3" fill="#dfeae7" stroke="#2f3b36" stroke-width="1"/>
<rect x="580" y="310" width="20" height="14" rx="3" fill="#dfeae7" stroke="#2f3b36" stroke-width="1"/>
<rect x="540" y="112" width="50" height="46" rx="3" fill="none" stroke="#8c9994" stroke-width="1.5" stroke-dasharray="4 4"/>
<path d="M551,121 L579,149 M579,121 L551,149" stroke="#b8654a" stroke-width="3.5" stroke-linecap="round"/>
<path d="M626,250 L716,250" fill="none" stroke="#3f7f73" stroke-width="3" stroke-dasharray="7 5" marker-end="url(#ah)"/>
<rect x="722" y="110" width="126" height="240" rx="16" fill="#2f3b36"/>
<rect x="731" y="126" width="108" height="206" rx="6" fill="#dfeae7"/>
<rect x="737" y="138" width="96" height="62" rx="6" fill="#ffffff" stroke="#6f9a90" stroke-width="1.5"/>
<rect x="737" y="212" width="96" height="62" rx="6" fill="#ffffff" stroke="#6f9a90" stroke-width="1.5"/>
<path d="M767,300 L781,314 L805,288" fill="none" stroke="#3f7f73" stroke-width="4" stroke-linecap="round" stroke-linejoin="round"/>
<text x="745" y="160" font-size="12" fill="#3f7f73" text-anchor="start" font-weight="700">SMS</text>
<text x="745" y="184" font-size="12" fill="#2f3b36" text-anchor="start" font-weight="600">Amount: 24.90</text>
<text x="745" y="234" font-size="11" fill="#3f7f73" text-anchor="start" font-weight="700">Bank app</text>
<text x="745" y="258" font-size="13" fill="#2f3b36" text-anchor="start" font-weight="600">Digital receipt</text>
<text x="671" y="240" font-size="12" fill="#3f7f73" text-anchor="middle" font-weight="600">via the bank</text>
<text x="565" y="375" font-size="15" fill="#3f7f73" text-anchor="middle" font-weight="600">No paper slip</text>
<text x="785" y="375" font-size="15" fill="#3f7f73" text-anchor="middle" font-weight="600">Amount notification</text>
<text x="450" y="440" font-size="18" fill="#2f3b36" text-anchor="middle" font-weight="600">For customers who chose digital receipts, the slip goes to the phone, not the bin</text>
</svg>
