<svg xmlns="http://www.w3.org/2000/svg" viewBox="0 0 900 470" width="900" height="470" role="img" aria-labelledby="t d" font-family="system-ui, -apple-system, 'Segoe UI', Arial, sans-serif">
<title id="t">Baraj gölündeki yüzen güneş panelleri su tasarrufu sağlar ve enerji üretir</title>
<desc id="d">Barajın arkasındaki bir göletin yan görünüşü. Soldaki açık suda sıcak güneş yoğun buharlaşmaya yol açıyor. Sağda yüzen dubalar üzerindeki güneş panelleri suyu gölgeleyip buharlaşmayı azaltıyor; alttaki su panelleri soğutuyor ve bir kablo elektriği baraj üzerindeki direğe taşıyor.</desc>
<rect x="1" y="1" width="898" height="468" rx="16" fill="#f8faf9" stroke="#d9e2de" stroke-width="1.5"/>
<defs><marker id="ah" viewBox="0 0 10 10" refX="8" refY="5" markerWidth="7" markerHeight="7" orient="auto-start-reverse"><path d="M0,0 L10,5 L0,10 Z" fill="#b8654a"/></marker><marker id="ag" viewBox="0 0 10 10" refX="8" refY="5" markerWidth="7" markerHeight="7" orient="auto-start-reverse"><path d="M0,0 L10,5 L0,10 Z" fill="#2f3b36"/></marker></defs>
<circle cx="100" cy="82" r="26" fill="#f3e3a6" stroke="#b8654a" stroke-width="2"/>
<line x1="134.0" y1="82.0" x2="146.0" y2="82.0" stroke="#b8654a" stroke-width="2.5" stroke-linecap="round"/>
<line x1="124.0" y1="106.0" x2="132.5" y2="114.5" stroke="#b8654a" stroke-width="2.5" stroke-linecap="round"/>
<line x1="100.0" y1="116.0" x2="100.0" y2="128.0" stroke="#b8654a" stroke-width="2.5" stroke-linecap="round"/>
<line x1="76.0" y1="106.0" x2="67.5" y2="114.5" stroke="#b8654a" stroke-width="2.5" stroke-linecap="round"/>
<line x1="66.0" y1="82.0" x2="54.0" y2="82.0" stroke="#b8654a" stroke-width="2.5" stroke-linecap="round"/>
<line x1="76.0" y1="58.0" x2="67.5" y2="49.5" stroke="#b8654a" stroke-width="2.5" stroke-linecap="round"/>
<line x1="100.0" y1="48.0" x2="100.0" y2="36.0" stroke="#b8654a" stroke-width="2.5" stroke-linecap="round"/>
<line x1="124.0" y1="58.0" x2="132.5" y2="49.5" stroke="#b8654a" stroke-width="2.5" stroke-linecap="round"/>
<path d="M30,280 L770,280 L770,380 L90,380 Q50,330 30,280 Z" fill="#a9cbc3"/>
<line x1="30" y1="280" x2="770" y2="280" stroke="#3f7f73" stroke-width="2"/>
<line x1="30" y1="380" x2="870" y2="380" stroke="#8c9994" stroke-width="3"/>
<path d="M770,236 L800,236 L850,380 L770,380 Z" fill="#c9d3cf" stroke="#2f3b36" stroke-width="2"/>
<path d="M130,272 Q122,252 130,234 Q138,216 130,196" fill="none" stroke="#b8654a" stroke-width="2.5" marker-end="url(#ah)"/>
<path d="M190,272 Q182,252 190,234 Q198,216 190,196" fill="none" stroke="#b8654a" stroke-width="2.5" marker-end="url(#ah)"/>
<path d="M250,272 Q242,252 250,234 Q258,216 250,196" fill="none" stroke="#b8654a" stroke-width="2.5" marker-end="url(#ah)"/>
<path d="M310,272 Q302,252 310,234 Q318,216 310,196" fill="none" stroke="#b8654a" stroke-width="2.5" marker-end="url(#ah)"/>
<path d="M370,272 Q362,252 370,234 Q378,216 370,196" fill="none" stroke="#b8654a" stroke-width="2.5" marker-end="url(#ah)"/>
<text x="250" y="172" font-size="16" fill="#2f3b36" text-anchor="middle" font-weight="600">Açık su: yüksek buharlaşma</text>
<rect x="425" y="282" width="320" height="16" fill="#6f9a90" opacity="0.55"/>
<rect x="430" y="273" width="52" height="11" rx="5" fill="#dfeae7" stroke="#2f3b36" stroke-width="1.5"/>
<line x1="444" y1="273" x2="444" y2="264" stroke="#2f3b36" stroke-width="2"/>
<line x1="470" y1="273" x2="470" y2="256" stroke="#2f3b36" stroke-width="2"/>
<path d="M432,268 L480,250 L482,256 L434,274 Z" fill="#2f3b36"/>
<line x1="448" y1="262" x2="450" y2="268" stroke="#6f9a90" stroke-width="1"/>
<line x1="464" y1="256" x2="466" y2="262" stroke="#6f9a90" stroke-width="1"/>
<rect x="493" y="273" width="52" height="11" rx="5" fill="#dfeae7" stroke="#2f3b36" stroke-width="1.5"/>
<line x1="507" y1="273" x2="507" y2="264" stroke="#2f3b36" stroke-width="2"/>
<line x1="533" y1="273" x2="533" y2="256" stroke="#2f3b36" stroke-width="2"/>
<path d="M495,268 L543,250 L545,256 L497,274 Z" fill="#2f3b36"/>
<line x1="511" y1="262" x2="513" y2="268" stroke="#6f9a90" stroke-width="1"/>
<line x1="527" y1="256" x2="529" y2="262" stroke="#6f9a90" stroke-width="1"/>
<rect x="556" y="273" width="52" height="11" rx="5" fill="#dfeae7" stroke="#2f3b36" stroke-width="1.5"/>
<line x1="570" y1="273" x2="570" y2="264" stroke="#2f3b36" stroke-width="2"/>
<line x1="596" y1="273" x2="596" y2="256" stroke="#2f3b36" stroke-width="2"/>
<path d="M558,268 L606,250 L608,256 L560,274 Z" fill="#2f3b36"/>
<line x1="574" y1="262" x2="576" y2="268" stroke="#6f9a90" stroke-width="1"/>
<line x1="590" y1="256" x2="592" y2="262" stroke="#6f9a90" stroke-width="1"/>
<rect x="619" y="273" width="52" height="11" rx="5" fill="#dfeae7" stroke="#2f3b36" stroke-width="1.5"/>
<line x1="633" y1="273" x2="633" y2="264" stroke="#2f3b36" stroke-width="2"/>
<line x1="659" y1="273" x2="659" y2="256" stroke="#2f3b36" stroke-width="2"/>
<path d="M621,268 L669,250 L671,256 L623,274 Z" fill="#2f3b36"/>
<line x1="637" y1="262" x2="639" y2="268" stroke="#6f9a90" stroke-width="1"/>
<line x1="653" y1="256" x2="655" y2="262" stroke="#6f9a90" stroke-width="1"/>
<rect x="682" y="273" width="52" height="11" rx="5" fill="#dfeae7" stroke="#2f3b36" stroke-width="1.5"/>
<line x1="696" y1="273" x2="696" y2="264" stroke="#2f3b36" stroke-width="2"/>
<line x1="722" y1="273" x2="722" y2="256" stroke="#2f3b36" stroke-width="2"/>
<path d="M684,268 L732,250 L734,256 L686,274 Z" fill="#2f3b36"/>
<line x1="700" y1="262" x2="702" y2="268" stroke="#6f9a90" stroke-width="1"/>
<line x1="716" y1="256" x2="718" y2="262" stroke="#6f9a90" stroke-width="1"/>
<text x="585" y="214" font-size="16" fill="#2f3b36" text-anchor="middle" font-weight="600">Dubalar üzerinde yüzen paneller</text>
<text x="585" y="236" font-size="14" fill="#5f6f68" text-anchor="middle">Sudaki gölge buharlaşmayı azaltır</text>
<line x1="480" y1="330" x2="480" y2="306" stroke="#2f3b36" stroke-width="2" marker-end="url(#ag)"/>
<line x1="585" y1="330" x2="585" y2="306" stroke="#2f3b36" stroke-width="2" marker-end="url(#ag)"/>
<line x1="690" y1="330" x2="690" y2="306" stroke="#2f3b36" stroke-width="2" marker-end="url(#ag)"/>
<text x="585" y="356" font-size="14" fill="#2f3b36" text-anchor="middle" font-weight="600">Su panelleri soğutur</text>
<text x="210" y="340" font-size="14" fill="#2f3b36" text-anchor="middle" font-weight="600">Sıcak günlerde su kaybı</text>
<path d="M794,236 L806,146 L818,236" fill="none" stroke="#2f3b36" stroke-width="2.5" stroke-linejoin="round"/>
<line x1="790" y1="164" x2="822" y2="164" stroke="#2f3b36" stroke-width="2.5"/>
<line x1="798" y1="200" x2="814" y2="200" stroke="#2f3b36" stroke-width="2"/>
<path d="M744,258 Q776,220 790,166" fill="none" stroke="#3f7f73" stroke-width="2.5" stroke-dasharray="6 4"/>
<path d="M842,98 L832,116 L842,116 L834,134" fill="none" stroke="#3f7f73" stroke-width="3" stroke-linejoin="round"/>
<text x="822" y="90" font-size="15" fill="#3f7f73" text-anchor="end" font-weight="600">Tesis ve şebeke için elektrik</text>
<text x="450" y="440" font-size="18" fill="#2f3b36" text-anchor="middle" font-weight="600">Yüzen paneller aynı yüzeyde su tasarrufu sağlar ve enerji üretir</text>
</svg>
